<svg xmlns="http://www.w3.org/2000/svg" xmlns:xlink="http://www.w3.org/1999/xlink" width="500" zoomAndPan="magnify" viewBox="0 0 375 374.999991" height="500" preserveAspectRatio="xMidYMid meet" version="1.0"><defs><g/></defs><g fill="#ffffff" fill-opacity="1"><g transform="translate(118.312497, 209.987096)"><g><path d="M 11.015625 -32.617188 L 11.015625 -56.953125 C 11.015625 -57.238281 10.726562 -57.601562 10.222656 -57.601562 L 0.792969 -57.601562 C 0.359375 -57.601562 0 -57.238281 0 -56.953125 L 0 -32.617188 Z M 43.054688 -57.601562 L 33.625 -57.601562 C 33.191406 -57.601562 32.832031 -57.238281 32.832031 -56.953125 L 32.832031 -21.527344 L 11.015625 -21.527344 L 11.015625 -21.601562 L 0 -21.601562 L 0 -0.648438 C 0 -0.359375 0.359375 0 0.792969 0 L 10.222656 0 C 10.726562 0 11.015625 -0.359375 11.015625 -0.648438 L 11.015625 -10.800781 L 32.832031 -10.800781 L 32.832031 -0.648438 C 32.832031 -0.359375 33.191406 0 33.625 0 L 43.054688 0 C 43.558594 0 43.847656 -0.359375 43.847656 -0.648438 L 43.847656 -56.953125 C 43.847656 -57.238281 43.558594 -57.601562 43.054688 -57.601562 Z M 43.054688 -57.601562 "/></g></g></g><g fill="#ffffff" fill-opacity="1"><g transform="translate(164.392473, 209.987096)"><g><path d="M 10.222656 -57.601562 L 0.792969 -57.601562 C 0.359375 -57.601562 0 -57.238281 0 -56.953125 L 0 -34.34375 L 11.015625 -34.34375 L 11.015625 -47.089844 C 23.542969 -47.734375 32.832031 -42.480469 32.832031 -28.800781 C 32.832031 -11.015625 18 -10.296875 11.015625 -10.585938 L 11.015625 -23.257812 L 0 -23.257812 L 0 -0.648438 C 0 -0.359375 0.359375 0 0.792969 0 L 10.222656 0 C 24.550781 0 43.921875 -4.175781 43.921875 -28.800781 C 43.921875 -54.359375 24.265625 -57.601562 10.222656 -57.601562 Z M 10.222656 -57.601562 "/></g></g></g><g fill="#ffffff" fill-opacity="1"><g transform="translate(210.544443, 209.987096)"><g><path d="M 32.902344 -10.585938 C 25.921875 -10.296875 11.089844 -11.015625 11.089844 -28.800781 C 11.089844 -42.480469 20.375 -47.734375 32.902344 -47.089844 L 32.902344 -34.34375 L 43.921875 -34.34375 L 43.921875 -56.953125 C 43.921875 -57.238281 43.632812 -57.601562 43.128906 -57.601562 L 33.769531 -57.601562 C 19.65625 -57.601562 0 -54.359375 0 -28.800781 C 0 -4.175781 19.441406 0 33.769531 0 L 43.128906 0 C 43.632812 0 43.921875 -0.359375 43.921875 -0.648438 L 43.921875 -10.585938 Z M 32.902344 -10.585938 "/></g></g></g></svg>