<svg xmlns="http://www.w3.org/2000/svg" xmlns:xlink="http://www.w3.org/1999/xlink" width="500" zoomAndPan="magnify" viewBox="0 0 375 374.999991" height="500" preserveAspectRatio="xMidYMid meet" version="1.0"><defs><g/><clipPath id="1c9e0379c9"><path d="M 15.0625 175.667969 L 87.8125 175.667969 L 87.8125 217.667969 L 15.0625 217.667969 Z M 15.0625 175.667969 " clip-rule="nonzero"/></clipPath></defs><g clip-path="url(#1c9e0379c9)"><path fill="#ffffff" d="M 87.800781 175.683594 L 64.726562 217.664062 L 57.832031 203.152344 L 49.855469 217.664062 L 34.535156 185.417969 L 20.527344 185.417969 L 15.066406 175.667969 L 40.738281 175.667969 L 50.410156 196.027344 L 61.714844 175.683594 L 72.929688 175.683594 L 63.640625 192.578125 L 65.28125 196.027344 L 76.585938 175.683594 Z M 33.707031 190.261719 L 33.707031 217.664062 L 43.503906 217.664062 L 43.503906 210.417969 Z M 53.519531 185.429688 L 58.84375 175.675781 L 43.53125 175.675781 L 48.191406 185.429688 Z M 53.519531 185.429688 " fill-opacity="1" fill-rule="nonzero"/></g><g fill="#ffffff" fill-opacity="1"><g transform="translate(91.255804, 207.034881)"><g><path d="M 0.980469 -27.761719 C 0.449219 -27.761719 0.164062 -27.472656 0.164062 -26.941406 L 0.164062 -23.023438 C 0.164062 -22.492188 0.449219 -22.207031 0.980469 -22.207031 L 11.757812 -22.207031 C 9.308594 -21.167969 7.675781 -18.226562 7.675781 -14.492188 L 7.675781 -0.816406 C 7.675781 -0.285156 7.960938 0 8.492188 0 L 12.980469 0 C 13.511719 0 13.796875 -0.285156 13.796875 -0.816406 L 13.796875 -22.207031 L 20.492188 -22.207031 C 21.023438 -22.207031 21.308594 -22.492188 21.308594 -23.023438 L 21.308594 -26.941406 C 21.308594 -27.472656 21.023438 -27.761719 20.492188 -27.761719 Z M 0.980469 -27.761719 "/></g></g></g><g fill="#ffffff" fill-opacity="1"><g transform="translate(119.09277, 207.034881)"><g><path d="M 17.308594 -22.207031 C 17.839844 -22.207031 18.125 -22.492188 18.125 -23.023438 L 18.125 -26.941406 C 18.125 -27.472656 17.839844 -27.761719 17.308594 -27.761719 L 2.859375 -27.761719 C 2.328125 -27.761719 2.042969 -27.472656 2.042969 -26.941406 L 2.042969 -23.023438 C 2.042969 -22.492188 2.328125 -22.207031 2.859375 -22.207031 L 6.511719 -22.207031 C 3.835938 -21.167969 2.042969 -18.351562 2.042969 -14.085938 L 2.042969 -0.816406 C 2.042969 -0.285156 2.328125 0 2.859375 0 L 17.308594 0 C 17.839844 0 18.125 -0.285156 18.125 -0.816406 L 18.125 -4.734375 C 18.125 -5.265625 17.839844 -5.550781 17.308594 -5.550781 L 8.164062 -5.550781 L 8.164062 -15.492188 C 9.144531 -13.144531 11.675781 -11.554688 15.511719 -11.554688 L 16.902344 -11.554688 C 17.429688 -11.554688 17.71875 -11.839844 17.71875 -12.371094 L 17.71875 -16.289062 C 17.71875 -16.820312 17.429688 -17.105469 16.902344 -17.105469 L 8.164062 -17.105469 L 8.164062 -22.207031 Z M 17.308594 -22.207031 "/></g></g></g><g fill="#ffffff" fill-opacity="1"><g transform="translate(145.215539, 207.034881)"><g><path d="M 15.269531 0.328125 C 21.269531 0.328125 26.617188 -2.980469 28.128906 -8.574219 C 28.289062 -9.144531 27.964844 -9.472656 27.390625 -9.472656 L 22.535156 -9.472656 C 22.085938 -9.472656 21.800781 -9.265625 21.59375 -8.816406 C 20.65625 -6.492188 18.167969 -5.226562 15.269531 -5.226562 C 10.777344 -5.226562 7.144531 -8.410156 7.144531 -13.960938 C 7.144531 -19.472656 10.777344 -22.65625 15.269531 -22.65625 C 18.125 -22.65625 20.617188 -21.390625 21.59375 -19.105469 C 21.800781 -18.65625 22.085938 -18.453125 22.535156 -18.453125 L 27.351562 -18.453125 C 27.921875 -18.453125 28.25 -18.777344 28.085938 -19.351562 C 26.535156 -24.863281 21.390625 -28.207031 15.308594 -28.207031 C 7.550781 -28.207031 1.019531 -22.738281 1.019531 -13.960938 C 1.019531 -5.308594 7.390625 0.328125 15.269531 0.328125 Z M 15.269531 0.328125 "/></g></g></g><g fill="#ffffff" fill-opacity="1"><g transform="translate(180.643899, 207.034881)"><g><path d="M 19.554688 -17.105469 L 8.367188 -17.105469 L 8.367188 -26.941406 C 8.367188 -27.472656 8.082031 -27.761719 7.550781 -27.761719 L 3.0625 -27.761719 C 2.53125 -27.761719 2.246094 -27.472656 2.246094 -26.941406 L 2.246094 0.816406 C 5.796875 0 8.367188 -3.019531 8.367188 -8.125 L 8.367188 -15.492188 C 9.347656 -13.144531 11.878906 -11.554688 15.71875 -11.554688 L 19.554688 -11.554688 L 19.554688 -0.816406 C 19.554688 -0.285156 19.839844 0 20.371094 0 L 24.863281 0 C 25.390625 0 25.679688 -0.285156 25.679688 -0.816406 L 25.679688 -28.578125 C 22.125 -27.761719 19.554688 -24.738281 19.554688 -19.636719 Z M 19.554688 -17.105469 "/></g></g></g><g fill="#ffffff" fill-opacity="1"><g transform="translate(214.929468, 207.034881)"><g/></g></g><g fill="#ffffff" fill-opacity="1"><g transform="translate(231.869089, 207.034881)"><g><path d="M 25.597656 -10.367188 L 19.960938 -28.578125 C 17.1875 -27.839844 15.144531 -26.496094 13.347656 -20.574219 L 10.289062 -10.410156 L 6.816406 -27.023438 C 6.734375 -27.515625 6.410156 -27.761719 5.917969 -27.761719 L 1.265625 -27.761719 C 0.695312 -27.761719 0.410156 -27.390625 0.53125 -26.863281 L 6.777344 -0.695312 C 6.898438 -0.246094 7.183594 0 7.675781 0 L 11.878906 0 C 12.328125 0 12.65625 -0.246094 12.777344 -0.695312 L 17.984375 -17.675781 L 23.105469 -0.695312 C 23.226562 -0.246094 23.554688 0 24.003906 0 L 28.207031 0 C 28.699219 0 28.984375 -0.246094 29.105469 -0.695312 L 35.71875 -28.578125 C 31.882812 -28.578125 28.902344 -26.125 27.636719 -20.125 Z M 25.597656 -10.367188 "/></g></g></g><g fill="#ffffff" fill-opacity="1"><g transform="translate(274.154189, 207.034881)"><g><path d="M 17.308594 -22.207031 C 17.839844 -22.207031 18.125 -22.492188 18.125 -23.023438 L 18.125 -26.941406 C 18.125 -27.472656 17.839844 -27.761719 17.308594 -27.761719 L 2.859375 -27.761719 C 2.328125 -27.761719 2.042969 -27.472656 2.042969 -26.941406 L 2.042969 -23.023438 C 2.042969 -22.492188 2.328125 -22.207031 2.859375 -22.207031 L 6.511719 -22.207031 C 3.835938 -21.167969 2.042969 -18.351562 2.042969 -14.085938 L 2.042969 -0.816406 C 2.042969 -0.285156 2.328125 0 2.859375 0 L 17.308594 0 C 17.839844 0 18.125 -0.285156 18.125 -0.816406 L 18.125 -4.734375 C 18.125 -5.265625 17.839844 -5.550781 17.308594 -5.550781 L 8.164062 -5.550781 L 8.164062 -15.492188 C 9.144531 -13.144531 11.675781 -11.554688 15.511719 -11.554688 L 16.902344 -11.554688 C 17.429688 -11.554688 17.71875 -11.839844 17.71875 -12.371094 L 17.71875 -16.289062 C 17.71875 -16.820312 17.429688 -17.105469 16.902344 -17.105469 L 8.164062 -17.105469 L 8.164062 -22.207031 Z M 17.308594 -22.207031 "/></g></g></g><g fill="#ffffff" fill-opacity="1"><g transform="translate(300.276952, 207.034881)"><g><path d="M 17.308594 -22.207031 C 17.839844 -22.207031 18.125 -22.492188 18.125 -23.023438 L 18.125 -26.941406 C 18.125 -27.472656 17.839844 -27.761719 17.308594 -27.761719 L 2.859375 -27.761719 C 2.328125 -27.761719 2.042969 -27.472656 2.042969 -26.941406 L 2.042969 -23.023438 C 2.042969 -22.492188 2.328125 -22.207031 2.859375 -22.207031 L 6.511719 -22.207031 C 3.835938 -21.167969 2.042969 -18.351562 2.042969 -14.085938 L 2.042969 -0.816406 C 2.042969 -0.285156 2.328125 0 2.859375 0 L 17.308594 0 C 17.839844 0 18.125 -0.285156 18.125 -0.816406 L 18.125 -4.734375 C 18.125 -5.265625 17.839844 -5.550781 17.308594 -5.550781 L 8.164062 -5.550781 L 8.164062 -15.492188 C 9.144531 -13.144531 11.675781 -11.554688 15.511719 -11.554688 L 16.902344 -11.554688 C 17.429688 -11.554688 17.71875 -11.839844 17.71875 -12.371094 L 17.71875 -16.289062 C 17.71875 -16.820312 17.429688 -17.105469 16.902344 -17.105469 L 8.164062 -17.105469 L 8.164062 -22.207031 Z M 17.308594 -22.207031 "/></g></g></g><g fill="#ffffff" fill-opacity="1"><g transform="translate(326.399714, 207.034881)"><g><path d="M 20.574219 -9.347656 C 18.820312 -12.449219 16.410156 -14.328125 13.59375 -15.105469 L 24.289062 -26.738281 C 24.78125 -27.269531 24.574219 -27.761719 23.882812 -27.761719 L 18.207031 -27.761719 C 17.800781 -27.761719 17.472656 -27.597656 17.1875 -27.3125 L 11.960938 -21.472656 C 10.164062 -19.472656 9.144531 -17.390625 8.574219 -15.226562 L 8.328125 -15.226562 L 8.328125 -26.941406 C 8.328125 -27.472656 8.042969 -27.761719 7.511719 -27.761719 L 3.019531 -27.761719 C 2.488281 -27.761719 2.203125 -27.472656 2.203125 -26.941406 L 2.203125 0.816406 C 5.757812 -0.410156 8.328125 -3.347656 8.328125 -8.941406 L 8.328125 -9.429688 L 11.632812 -12.980469 L 18.125 -0.570312 C 18.328125 -0.164062 18.617188 0 19.0625 0 L 24.738281 0 C 25.351562 0 25.636719 -0.449219 25.308594 -0.980469 Z M 20.574219 -9.347656 "/></g></g></g></svg>